<svg width="66" height="57" viewBox="0 0 66 57" fill="none" xmlns="http://www.w3.org/2000/svg">
<path fill-rule="evenodd" clip-rule="evenodd" d="M6.75818 43.1489C7.47713 43.8723 10.3529 47.489 13.6601 48.791C16.5359 49.8036 18.2614 52.263 18.9804 52.5523C18.549 52.4076 16.6797 51.2503 15.098 50.3823C12.5098 49.0803 10.3529 48.6463 8.48366 45.6083C9.34641 48.0676 11.2157 49.225 13.5163 50.2376C13.6601 50.2376 12.6536 50.527 11.9346 50.527C12.5098 50.8163 14.2353 50.527 14.3791 50.527C15.6732 51.1056 17.1111 51.829 18.4052 52.8416C12.0784 53.2756 8.19608 49.8036 6.75818 43.1489ZM11.7909 37.3623C12.9412 41.1236 12.7974 45.1743 15.098 47.923C16.6797 49.8036 18.8366 51.1056 22 51.5396C20.2745 53.7096 17.8301 53.999 13.9477 53.2756C16.536 54.433 18.1177 55.4456 19.8431 54.867C21.4248 54.2883 23.0065 53.131 23.5817 50.6716C23.2941 50.527 22.8627 50.527 22.719 50.3823C22.5752 50.3823 22.4314 50.2376 22.2876 50.2376V50.6716C19.9869 49.3696 18.4052 47.489 16.9673 45.6083C14.8105 42.4256 13.8039 39.0983 11.7909 37.3623ZM37.3856 51.829C37.817 53.4203 38.3922 55.0117 39.3987 56.169C37.9608 56.0243 36.5229 55.5903 35.2288 55.0116C33.3595 54.1436 32.7843 54.1436 30.7712 55.0116C29.4771 55.5903 28.0392 56.0243 26.6013 56.169C27.6078 55.1563 28.183 53.4203 28.6144 51.829C30.3399 51.9736 32.0654 52.1183 33.0719 52.263C33.9346 52.1183 35.5163 51.9736 37.3856 51.829ZM38.1046 51.6843C38.3922 52.9863 39.5425 56.4583 41.5556 56.0243C40.1176 54.7223 39.6863 52.9863 39.5425 51.395C39.1111 51.5396 38.6797 51.5396 38.1046 51.6843ZM27.6078 51.6843C27.3203 52.9863 26.1699 56.4583 24.1569 56.0243C25.5948 54.7223 26.0261 52.9863 26.1699 51.395C26.7451 51.5396 27.1765 51.5396 27.6078 51.6843ZM40.4052 51.2503C40.549 52.9863 41.6994 55.0116 43.4248 55.8796C43.7124 56.0243 44.5752 55.8796 44.8627 55.735C42.9935 54.433 42.1307 52.8416 41.5556 50.961C41.1242 51.1056 40.8366 51.2503 40.4052 51.2503ZM25.451 51.2503C25.3072 52.9863 24.1569 55.0116 22.4314 55.8796C22.1438 56.0243 21.281 55.8796 20.9935 55.735C22.8627 54.433 23.7255 52.8416 24.3007 50.961C24.5882 51.1056 25.0196 51.2503 25.451 51.2503ZM54.0654 37.3623C52.915 41.1236 53.0588 45.1743 50.7582 47.923C49.1765 49.8036 47.0196 51.1056 43.8562 51.5396C45.5817 53.7096 48.0261 53.999 51.9085 53.2756C49.3203 54.433 47.7386 55.4456 46.0131 54.867C44.4314 54.2883 42.8497 53.131 42.2745 50.6716C42.5621 50.527 42.9935 50.527 43.1373 50.3823C43.281 50.3823 43.4248 50.2376 43.5686 50.2376V50.6716C45.8693 49.3696 47.451 47.489 48.8889 45.6083C51.0457 42.4256 52.0523 39.0983 54.0654 37.3623ZM51.9085 43.0043C51.6209 45.4636 50.7582 47.3443 49.3203 48.6463C47.8824 49.9483 46.0131 50.8163 43.7124 51.1056C45.7255 50.527 47.451 49.3696 48.8889 46.9103C48.8889 47.489 48.6013 47.923 48.4575 48.5016C49.7516 46.9103 50.902 45.3189 51.9085 43.0043ZM13.9477 43.0043C14.2353 45.4636 15.098 47.3443 16.5359 48.6463C17.9739 49.9483 19.8431 50.8163 22.1438 51.1056C20.1307 50.527 18.4052 49.3696 16.9673 46.9103C16.9673 47.489 17.2549 47.923 17.3987 48.5016C16.1046 46.9103 14.9543 45.3189 13.9477 43.0043ZM59.3856 31.1416C56.7974 36.9283 55.2157 34.1796 54.7843 40.5449C54.7843 40.5449 55.3595 38.9536 56.5098 37.2176C57.5163 35.3369 58.8105 34.7582 59.2418 32.0096C58.9543 34.9029 57.5163 35.9156 56.6536 37.5069C55.6471 39.5323 54.9281 40.8343 54.9281 40.8343C57.8039 39.0983 60.2484 36.0603 59.3856 31.1416ZM6.61438 31.1416C9.20261 36.9283 10.7843 34.1796 11.2157 40.5449C11.2157 40.5449 10.6405 38.9536 9.49019 37.2176C8.48366 35.3369 7.18955 34.7582 6.75818 32.0096C7.04576 34.9029 8.48366 35.9156 9.34641 37.5069C10.3529 39.5323 11.0719 40.8343 11.0719 40.8343C8.19608 39.0983 5.75163 36.0603 6.61438 31.1416ZM66 27.5249C62.549 32.4436 60.9673 29.8396 60.3922 35.7709C60.3922 35.7709 60.9673 34.4689 62.4052 32.5882C63.5556 31.1416 65.1373 30.2736 65.7124 28.2482C65.4248 30.2736 63.8431 31.2862 62.549 32.8776C61.2549 34.4689 60.5359 36.0603 60.5359 36.0603C63.4118 34.7583 66 32.2989 66 27.5249ZM0 27.5249C3.45098 32.4436 5.03268 29.8396 5.60784 35.7709C5.60784 35.7709 5.03268 34.4689 3.59477 32.5882C2.44444 31.1416 0.862752 30.2736 0.287588 28.2482C0.57517 30.2736 2.15686 31.2862 3.45098 32.8776C4.7451 34.4689 5.46406 36.0603 5.46406 36.0603C2.58824 34.7583 0 32.2989 0 27.5249ZM50.4706 0.038147C54.7843 4.08883 56.5098 8.13951 58.9542 9.73084C58.9542 9.73084 57.3725 7.41617 55.9346 5.5355C54.7843 3.94416 53.3464 2.35282 52.3399 1.48482C52.915 1.91882 54.7843 3.65483 56.2222 5.39083C57.6601 7.12684 59.2418 9.58617 59.2418 9.58617C58.9543 6.69283 54.0654 1.77415 50.4706 0.038147ZM15.5294 0.038147C11.2157 4.08883 9.4902 8.13951 7.04575 9.73084C7.04575 9.73084 8.62745 7.41617 10.0654 5.5355C11.2157 3.94416 12.6536 2.35282 13.6601 1.48482C13.085 1.91882 11.2157 3.65483 9.77778 5.39083C8.33987 7.12684 6.75818 9.58617 6.75818 9.58617C7.04576 6.69283 11.9346 1.77415 15.5294 0.038147ZM57.085 3.36549C59.9608 8.5735 59.817 11.9009 61.9739 14.3602C61.9739 14.3602 61.3987 12.4795 60.5359 10.3095C59.817 8.42884 59.098 6.4035 58.3791 5.39083C58.8105 5.9695 59.9608 8.28417 60.8235 10.3095C61.6863 12.4795 62.2614 14.3602 62.2614 14.3602C63.1242 11.6115 59.9608 6.25883 57.085 3.36549ZM8.91504 3.36549C6.03922 8.5735 6.18301 11.9009 4.02615 14.3602C4.02615 14.3602 4.60131 12.4795 5.46406 10.3095C6.18301 8.42884 6.90196 6.4035 7.62092 5.39083C7.18955 5.9695 6.03921 8.28417 5.17647 10.3095C4.31372 12.4795 3.73856 14.3602 3.73856 14.3602C2.87581 11.6115 6.03922 6.25883 8.91504 3.36549ZM55.2157 6.8375C58.8105 11.6115 58.0915 14.5049 61.6863 16.9642C61.6863 16.9642 60.9673 15.9515 60.2484 14.5049C59.817 13.4922 57.8039 9.58617 56.7974 8.42884C58.0915 9.58617 60.1046 13.6369 60.5359 14.3602C61.2549 15.6622 61.9739 16.8195 61.9739 16.8195C61.9739 14.5049 58.3791 9.15218 55.2157 6.8375ZM10.7843 6.8375C7.18954 11.6115 7.9085 14.5049 4.31373 16.9642C4.31373 16.9642 5.03268 15.9515 5.75163 14.5049C6.18301 13.4922 8.19608 9.58617 9.20262 8.42884C7.9085 9.58617 5.89543 13.6369 5.46406 14.3602C4.7451 15.6622 4.02615 16.8195 4.02615 16.8195C4.02615 14.5049 7.62091 9.15218 10.7843 6.8375ZM62.9804 12.1902C62.9804 16.6749 61.1111 16.2409 63.268 20.1469C63.268 20.1469 62.9804 18.8449 62.9804 17.3982C62.9804 16.2409 63.6993 14.7942 63.268 13.3475C63.8431 14.9389 63.268 16.6749 63.268 17.3982C63.268 18.8449 63.4118 20.2915 63.4118 20.1469C64.5621 17.9769 64.9935 15.0835 62.9804 12.1902ZM3.16341 12.1902C3.16341 16.6749 5.03268 16.2409 2.87582 20.1469C2.87582 20.1469 3.16341 18.8449 3.16341 17.3982C3.16341 16.2409 2.44444 14.7942 2.87582 13.3475C2.30065 14.9389 2.87582 16.6749 2.87582 17.3982C2.87582 18.8449 2.73203 20.2915 2.73203 20.1469C1.43791 17.9769 1.00654 15.0835 3.16341 12.1902ZM57.5163 15.0835C60.2484 18.7002 58.3791 19.4235 62.4052 21.3042C62.4052 21.3042 61.5425 20.4362 60.5359 19.1342C59.817 18.2662 59.5294 16.6749 58.2353 15.6622C59.6732 16.6749 60.2484 18.2662 60.6797 18.9895C61.5425 20.1469 62.549 21.1595 62.549 21.1595C62.2614 18.8449 60.9673 16.2409 57.5163 15.0835ZM8.48366 15.0835C5.75164 18.7002 7.62091 19.4235 3.59477 21.3042C3.59477 21.3042 4.45752 20.4362 5.46406 19.1342C6.18301 18.2662 6.47059 16.6749 7.76471 15.6622C6.3268 16.6749 5.75164 18.2662 5.32027 18.9895C4.31373 20.2915 3.45098 21.3042 3.45098 21.1595C3.73856 18.8449 5.03268 16.2409 8.48366 15.0835ZM64.7059 17.8322C63.6993 22.1722 61.8301 21.3042 63.1242 25.6442C63.1242 25.6442 63.268 24.3422 63.5556 22.8956C63.8431 21.8829 64.8497 20.4362 64.7059 18.9895C64.9935 20.7255 63.9869 22.1722 63.6993 23.0402C63.4118 24.4869 63.268 25.7889 63.268 25.7889C64.8497 23.7636 66 21.1595 64.7059 17.8322ZM1.29412 17.8322C2.30066 22.1722 4.16993 21.3042 2.87582 25.6442C2.87582 25.6442 2.73203 24.3422 2.44445 22.8956C2.15687 21.8829 1.15033 20.4362 1.29412 18.9895C1.00654 20.7255 2.01307 22.1722 2.30065 23.0402C2.58823 24.4869 2.73203 25.7889 2.73203 25.7889C1.15033 23.7636 2.22836e-06 21.1595 1.29412 17.8322ZM58.9542 19.5682C60.6797 23.7636 58.6667 24.0529 62.1176 26.8016C62.1176 26.8016 61.3987 25.6442 60.8235 24.3422C60.3922 23.3296 60.5359 21.5935 59.5294 20.4362C60.6797 21.7382 60.8235 23.4742 61.1111 24.1975C61.6863 25.4996 62.4052 26.8016 62.4052 26.8016C62.549 24.3422 61.9739 21.5935 58.9542 19.5682ZM7.04575 19.5682C5.32026 23.7636 7.33334 24.0529 3.88236 26.8016C3.88236 26.8016 4.6013 25.6442 5.17647 24.3422C5.60784 23.3296 5.46405 21.5935 6.47059 20.4362C5.32026 21.7382 5.17647 23.4742 4.88889 24.1975C4.31373 25.4996 3.59477 26.8016 3.59477 26.8016C3.45098 24.3422 4.02615 21.5935 7.04575 19.5682ZM65.7124 23.1849C63.5556 27.0909 62.1176 25.7889 62.1176 30.2736C62.1176 30.2736 62.549 29.1162 63.268 27.6696C63.8431 26.6569 65.1373 25.6442 65.4248 24.1975C65.1373 25.9336 63.8431 27.0909 63.4118 27.8142C62.6928 29.1162 62.1176 30.4182 62.2614 30.4182C64.4183 29.1162 66.1438 26.8016 65.7124 23.1849ZM0.287588 23.1849C2.44445 27.0909 3.88236 25.7889 3.88236 30.2736C3.88236 30.2736 3.45098 29.1162 2.73203 27.6696C2.15686 26.6569 0.862747 25.6442 0.575166 24.1975C0.862747 25.9336 2.15687 27.0909 2.58824 27.8142C3.30719 29.1162 3.88235 30.4182 3.73856 30.4182C1.5817 29.1162 -0.143784 26.8016 0.287588 23.1849ZM59.2418 24.1975C59.9608 28.6822 57.9477 28.5376 60.8235 32.0096C60.8235 32.0096 60.3922 30.8522 60.1046 29.2609C59.9608 28.1036 60.3922 26.5122 59.6732 25.2102C60.5359 26.8016 60.2484 28.3929 60.3922 29.2609C60.6797 30.7076 60.9673 32.0096 61.1111 32.0096C61.8301 29.6949 61.8301 26.8016 59.2418 24.1975ZM6.75818 24.1975C6.03922 28.6822 8.05229 28.5376 5.17647 32.0096C5.17647 32.0096 5.60784 30.8522 5.89542 29.2609C6.03921 28.1036 5.60784 26.5122 6.3268 25.2102C5.46405 26.8016 5.75164 28.3929 5.60784 29.2609C5.32026 30.7076 5.03268 32.0096 4.88889 32.0096C4.16994 29.6949 4.16994 26.8016 6.75818 24.1975ZM62.6928 35.1923C62.1176 36.4943 61.1111 37.7963 59.5294 38.9536C57.3725 40.5449 57.2288 40.4003 55.2157 42.4256C54.6405 43.0043 53.7778 43.5829 53.0588 44.1616C53.0588 44.1616 55.7909 43.1489 58.5229 41.2683C60.2484 40.1109 62.2614 38.9536 62.6928 36.3496C62.6928 38.6643 60.9673 40.1109 58.8105 41.5576C57.2288 42.7149 54.3529 44.1616 52.915 44.4509C55.9346 44.1616 64.8497 42.8596 62.6928 35.1923ZM3.30719 35.1923C3.88236 36.4943 4.88889 37.7963 6.47059 38.9536C8.62745 40.5449 8.77124 40.4003 10.7843 42.4256C11.3595 43.0043 12.2222 43.5829 12.9412 44.1616C12.9412 44.1616 10.2092 43.1489 7.47713 41.2683C5.75164 40.1109 3.73857 38.9536 3.30719 36.3496C3.30719 38.6643 5.03268 40.1109 7.18954 41.5576C8.77124 42.7149 11.6471 44.1616 13.085 44.4509C10.0654 44.1616 1.15033 42.8596 3.30719 35.1923ZM59.2418 43.1489C58.5229 43.8723 55.6471 47.489 52.3399 48.791C49.4641 49.8036 47.7386 52.263 47.0196 52.5523C47.451 52.4076 49.3203 51.2503 50.902 50.3823C53.4902 49.0803 55.6471 48.6463 57.5163 45.6083C56.6536 48.0676 54.7843 49.225 52.4837 50.2376C52.3399 50.2376 53.3464 50.527 54.0654 50.527C53.4902 50.8163 51.7647 50.527 51.6209 50.527C50.3268 51.1056 48.8889 51.829 47.5948 52.8416C53.9216 53.2756 57.8039 49.8036 59.2418 43.1489Z" fill="#A3A3A3"/>
</svg>
