<svg width="46" height="39" viewBox="0 0 46 39" fill="none" xmlns="http://www.w3.org/2000/svg">
<path fill-rule="evenodd" clip-rule="evenodd" d="M4.71024 29.9536C5.21133 30.4562 7.21569 32.9691 9.5207 33.8737C11.5251 34.5773 12.7277 36.2861 13.2288 36.4871C12.9281 36.3866 11.6253 35.5825 10.5229 34.9794C8.71895 34.0747 7.21569 33.7732 5.91286 31.6624C6.51416 33.3711 7.817 34.1753 9.42048 34.8789C9.5207 34.8789 8.81918 35.0799 8.31809 35.0799C8.71896 35.2809 9.92157 35.0799 10.0218 35.0799C10.9237 35.482 11.9259 35.9845 12.8279 36.6881C8.4183 36.9897 5.71242 34.5773 4.71024 29.9536ZM8.21787 25.933C9.01961 28.5464 8.91939 31.3608 10.5229 33.2706C11.6253 34.5773 13.1285 35.482 15.3333 35.7835C14.1307 37.2912 12.427 37.4923 9.72114 36.9897C11.5251 37.7938 12.6275 38.4974 13.8301 38.0954C14.9325 37.6933 16.0349 36.8892 16.4357 35.1804C16.2353 35.0799 15.9346 35.0799 15.8344 34.9794C15.7342 34.9794 15.634 34.8789 15.5338 34.8789V35.1804C13.9303 34.2758 12.8279 32.9691 11.8257 31.6624C10.3224 29.451 9.62092 27.1392 8.21787 25.933ZM26.0566 35.9845C26.3573 37.0902 26.7582 38.1959 27.4597 39C26.4575 38.8995 25.4553 38.5979 24.5534 38.1959C23.2505 37.5928 22.8497 37.5928 21.4466 38.1959C20.5447 38.5979 19.5425 38.8995 18.5403 39C19.2418 38.2964 19.6427 37.0902 19.9434 35.9845C21.146 36.0851 22.3486 36.1856 23.0501 36.2861C23.6514 36.1856 24.7538 36.0851 26.0566 35.9845ZM26.5577 35.884C26.7582 36.7887 27.5599 39.201 28.963 38.8995C27.9608 37.9948 27.6601 36.7887 27.5599 35.683C27.2593 35.7835 26.9586 35.7835 26.5577 35.884ZM19.2418 35.884C19.0414 36.7887 18.2397 39.201 16.8366 38.8995C17.8388 37.9948 18.1394 36.7887 18.2397 35.683C18.6405 35.7835 18.9412 35.7835 19.2418 35.884ZM28.1612 35.5825C28.2614 36.7887 29.0632 38.1959 30.2658 38.799C30.4662 38.8995 31.0675 38.799 31.268 38.6985C29.9651 37.7938 29.3638 36.6881 28.963 35.3814C28.6623 35.482 28.4619 35.5825 28.1612 35.5825ZM17.7386 35.5825C17.6383 36.7887 16.8366 38.1959 15.634 38.799C15.4335 38.8995 14.8322 38.799 14.6318 38.6985C15.9346 37.7938 16.5359 36.6881 16.9368 35.3814C17.1373 35.482 17.4379 35.5825 17.7386 35.5825ZM37.6819 25.933C36.8802 28.5464 36.9804 31.3608 35.3769 33.2706C34.2745 34.5773 32.7712 35.482 30.5665 35.7835C31.7691 37.2912 33.4728 37.4923 36.1786 36.9897C34.3747 37.7938 33.2723 38.4974 32.0697 38.0954C30.9673 37.6933 29.8649 36.8892 29.4641 35.1804C29.6645 35.0799 29.9651 35.0799 30.0654 34.9794C30.1656 34.9794 30.2658 34.8789 30.366 34.8789V35.1804C31.9695 34.2758 33.0719 32.9691 34.0741 31.6624C35.5773 29.451 36.2789 27.1392 37.6819 25.933ZM36.1786 29.8531C35.9782 31.5619 35.3769 32.8686 34.3747 33.7732C33.3726 34.6778 32.0697 35.2809 30.4662 35.482C31.8693 35.0799 33.0719 34.2758 34.0741 32.567C34.0741 32.9691 33.8736 33.2706 33.7734 33.6727C34.6754 32.567 35.4771 31.4613 36.1786 29.8531ZM9.72114 29.8531C9.92157 31.5619 10.5229 32.8686 11.5251 33.7732C12.5272 34.6778 13.8301 35.2809 15.4336 35.482C14.0305 35.0799 12.8279 34.2758 11.8257 32.567C11.8257 32.9691 12.0261 33.2706 12.1264 33.6727C11.2244 32.567 10.4227 31.4613 9.72114 29.8531ZM41.39 21.6108C39.5861 25.6314 38.4837 23.7216 38.183 28.1443C38.183 28.1443 38.5839 27.0387 39.3856 25.8325C40.0872 24.5258 40.9891 24.1237 41.2898 22.2139C41.0893 24.2242 40.0871 24.9278 39.4858 26.0335C38.7843 27.4407 38.2832 28.3454 38.2832 28.3454C40.2876 27.1392 41.9913 25.0284 41.39 21.6108ZM4.61002 21.6108C6.41394 25.6314 7.51634 23.7216 7.817 28.1443C7.817 28.1443 7.41612 27.0387 6.61438 25.8325C5.91285 24.5258 5.0109 24.1237 4.71024 22.2139C4.91068 24.2242 5.91285 24.9278 6.51416 26.0335C7.21569 27.4407 7.71678 28.3454 7.71678 28.3454C5.71242 27.1392 4.00871 25.0284 4.61002 21.6108ZM46 19.0979C43.5948 22.5155 42.4924 20.7062 42.0915 24.8273C42.0915 24.8273 42.4924 23.9227 43.4946 22.616C44.2963 21.6108 45.3987 21.0077 45.7996 19.6005C45.5991 21.0077 44.4967 21.7113 43.5948 22.817C42.6928 23.9227 42.1917 25.0284 42.1917 25.0284C44.1961 24.1237 46 22.4149 46 19.0979ZM0 19.0979C2.40523 22.5155 3.50763 20.7062 3.9085 24.8273C3.9085 24.8273 3.50763 23.9227 2.50545 22.616C1.7037 21.6108 0.601312 21.0077 0.20044 19.6005C0.400876 21.0077 1.50327 21.7113 2.40523 22.817C3.30719 23.9227 3.80828 25.0284 3.80828 25.0284C1.80392 24.1237 0 22.4149 0 19.0979ZM35.1765 0C38.183 2.81443 39.3856 5.62887 41.0893 6.73454C41.0893 6.73454 39.9869 5.12629 38.9848 3.81959C38.183 2.71392 37.1808 1.60825 36.4793 1.00515C36.8802 1.3067 38.183 2.51289 39.1852 3.71907C40.1874 4.92526 41.2898 6.63402 41.2898 6.63402C41.0893 4.62371 37.6819 1.20619 35.1765 0ZM10.8235 0C7.817 2.81443 6.61438 5.62887 4.91068 6.73454C4.91068 6.73454 6.01307 5.12629 7.01525 3.81959C7.81699 2.71392 8.81917 1.60825 9.5207 1.00515C9.11983 1.3067 7.817 2.51289 6.81482 3.71907C5.81264 4.92526 4.71024 6.63402 4.71024 6.63402C4.91068 4.62371 8.31809 1.20619 10.8235 0ZM39.7865 2.31185C41.7909 5.93041 41.6906 8.24227 43.1939 9.95103C43.1939 9.95103 42.793 8.64433 42.1917 7.1366C41.6906 5.8299 41.1895 4.42268 40.6885 3.71907C40.9891 4.12113 41.7909 5.72938 42.3922 7.1366C42.9935 8.64433 43.3943 9.95103 43.3943 9.95103C43.9956 8.04124 41.7909 4.32216 39.7865 2.31185ZM6.21351 2.31185C4.20916 5.93041 4.30937 8.24227 2.8061 9.95103C2.8061 9.95103 3.20697 8.64433 3.80828 7.1366C4.30937 5.8299 4.81046 4.42268 5.31155 3.71907C5.0109 4.12113 4.20915 5.72938 3.60784 7.1366C3.00653 8.64433 2.60566 9.95103 2.60566 9.95103C2.00436 8.04124 4.20916 4.32216 6.21351 2.31185ZM38.4837 4.72423C40.9891 8.04124 40.488 10.0515 42.9935 11.7603C42.9935 11.7603 42.4924 11.0567 41.9913 10.0515C41.6906 9.34794 40.2876 6.63402 39.5861 5.8299C40.488 6.63402 41.8911 9.44845 42.1917 9.95103C42.6928 10.8557 43.1939 11.6598 43.1939 11.6598C43.1939 10.0515 40.6885 6.33247 38.4837 4.72423ZM7.51634 4.72423C5.01089 8.04124 5.51198 10.0515 3.00654 11.7603C3.00654 11.7603 3.50763 11.0567 4.00871 10.0515C4.30937 9.34794 5.71242 6.63402 6.41395 5.8299C5.51198 6.63402 4.10894 9.44845 3.80828 9.95103C3.30719 10.8557 2.8061 11.6598 2.8061 11.6598C2.8061 10.0515 5.31155 6.33247 7.51634 4.72423ZM43.8954 8.4433C43.8954 11.5593 42.5926 11.2577 44.0959 13.9717C44.0959 13.9717 43.8954 13.067 43.8954 12.0619C43.8954 11.2577 44.3965 10.2526 44.0959 9.24742C44.4967 10.3531 44.0959 11.5593 44.0959 12.0619C44.0959 13.067 44.1961 14.0722 44.1961 13.9717C44.9978 12.4639 45.2985 10.4536 43.8954 8.4433ZM2.2048 8.4433C2.2048 11.5593 3.50763 11.2577 2.00436 13.9717C2.00436 13.9717 2.2048 13.067 2.2048 12.0619C2.2048 11.2577 1.7037 10.2526 2.00436 9.24742C1.60349 10.3531 2.00436 11.5593 2.00436 12.0619C2.00436 13.067 1.90414 14.0722 1.90414 13.9717C1.00218 12.4639 0.70153 10.4536 2.2048 8.4433ZM40.0871 10.4536C41.9913 12.9665 40.6885 13.4691 43.4946 14.7758C43.4946 14.7758 42.8932 14.1727 42.1917 13.268C41.6906 12.6649 41.4902 11.5593 40.5882 10.8557C41.5904 11.5593 41.9913 12.6649 42.2919 13.1675C42.8933 13.9716 43.5948 14.6753 43.5948 14.6753C43.3943 13.067 42.4924 11.2577 40.0871 10.4536ZM5.91286 10.4536C4.00872 12.9665 5.31155 13.4691 2.50545 14.7758C2.50545 14.7758 3.10676 14.1727 3.80828 13.268C4.30937 12.6649 4.50981 11.5593 5.41177 10.8557C4.40959 11.5593 4.00872 12.6649 3.70807 13.1675C3.00654 14.0722 2.40523 14.7758 2.40523 14.6753C2.60567 13.067 3.50763 11.2577 5.91286 10.4536ZM45.098 12.3634C44.3965 15.3789 43.0937 14.7758 43.9956 17.7912C43.9956 17.7912 44.0959 16.8866 44.2963 15.8814C44.4967 15.1778 45.1983 14.1727 45.098 13.1675C45.2985 14.3737 44.597 15.3789 44.3965 15.982C44.1961 16.9871 44.0959 17.8918 44.0959 17.8918C45.1983 16.4845 46 14.6753 45.098 12.3634ZM0.901962 12.3634C1.60349 15.3789 2.90632 14.7758 2.00436 17.7912C2.00436 17.7912 1.90414 16.8866 1.70371 15.8814C1.50327 15.1778 0.801744 14.1727 0.901962 13.1675C0.701527 14.3737 1.40305 15.3789 1.60348 15.982C1.80392 16.9871 1.90414 17.8918 1.90414 17.8918C0.801744 16.4845 1.5531e-06 14.6753 0.901962 12.3634ZM41.0893 13.5696C42.2919 16.4845 40.8889 16.6856 43.2941 18.5954C43.2941 18.5954 42.793 17.7912 42.3922 16.8866C42.0915 16.183 42.1917 14.9768 41.4902 14.1727C42.2919 15.0773 42.3922 16.2835 42.5926 16.7861C42.9935 17.6907 43.4946 18.5954 43.4946 18.5954C43.5948 16.8866 43.1939 14.9768 41.0893 13.5696ZM4.91068 13.5696C3.70806 16.4845 5.11112 16.6856 2.70589 18.5954C2.70589 18.5954 3.20697 17.7912 3.60784 16.8866C3.9085 16.183 3.80828 14.9768 4.5098 14.1727C3.70806 15.0773 3.60784 16.2835 3.40741 16.7861C3.00654 17.6907 2.50545 18.5954 2.50545 18.5954C2.40523 16.8866 2.8061 14.9768 4.91068 13.5696ZM45.7996 16.0825C44.2963 18.7964 43.2941 17.8918 43.2941 21.0077C43.2941 21.0077 43.5948 20.2036 44.0959 19.1985C44.4967 18.4948 45.3987 17.7912 45.5991 16.7861C45.3987 17.9923 44.4967 18.7964 44.1961 19.299C43.695 20.2036 43.2941 21.1082 43.3943 21.1082C44.8976 20.2036 46.1002 18.5954 45.7996 16.0825ZM0.20044 16.0825C1.70371 18.7964 2.70589 17.8918 2.70589 21.0077C2.70589 21.0077 2.40523 20.2036 1.90414 19.1985C1.50327 18.4948 0.601309 17.7912 0.400873 16.7861C0.601309 17.9923 1.50327 18.7964 1.80392 19.299C2.30501 20.2036 2.70588 21.1082 2.60566 21.1082C1.1024 20.2036 -0.100213 18.5954 0.20044 16.0825ZM41.2898 16.7861C41.7909 19.9021 40.3878 19.8015 42.3922 22.2139C42.3922 22.2139 42.0915 21.4098 41.8911 20.3041C41.7909 19.5 42.0915 18.3943 41.5904 17.4897C42.1917 18.5954 41.9913 19.701 42.0915 20.3041C42.2919 21.3093 42.4924 22.2139 42.5926 22.2139C43.0937 20.6057 43.0937 18.5954 41.2898 16.7861ZM4.71024 16.7861C4.20916 19.9021 5.6122 19.8015 3.60784 22.2139C3.60784 22.2139 3.9085 21.4098 4.10893 20.3041C4.20915 19.5 3.9085 18.3943 4.40959 17.4897C3.80828 18.5954 4.00872 19.701 3.9085 20.3041C3.70806 21.3093 3.50763 22.2139 3.40741 22.2139C2.90632 20.6057 2.90632 18.5954 4.71024 16.7861ZM43.695 24.4253C43.2941 25.3299 42.5926 26.2345 41.4902 27.0387C39.9869 28.1443 39.8867 28.0438 38.4837 29.451C38.0828 29.8531 37.4815 30.2552 36.9804 30.6572C36.9804 30.6572 38.8845 29.9536 40.7887 28.6469C41.9913 27.8428 43.3943 27.0387 43.695 25.2294C43.695 26.8376 42.4924 27.8428 40.9891 28.8479C39.8867 29.6521 37.8824 30.6572 36.8802 30.8582C38.9848 30.6572 45.1983 29.7526 43.695 24.4253ZM2.30501 24.4253C2.70589 25.3299 3.40741 26.2345 4.5098 27.0387C6.01307 28.1443 6.11329 28.0438 7.51634 29.451C7.91721 29.8531 8.51852 30.2552 9.01961 30.6572C9.01961 30.6572 7.11547 29.9536 5.21133 28.6469C4.00872 27.8428 2.60567 27.0387 2.30501 25.2294C2.30501 26.8376 3.50763 27.8428 5.01089 28.8479C6.11329 29.6521 8.11765 30.6572 9.11982 30.8582C7.01525 30.6572 0.801746 29.7526 2.30501 24.4253ZM41.2898 29.9536C40.7887 30.4562 38.7843 32.9691 36.4793 33.8737C34.4749 34.5773 33.2723 36.2861 32.7712 36.4871C33.0719 36.3866 34.3747 35.5825 35.4771 34.9794C37.281 34.0747 38.7843 33.7732 40.0871 31.6624C39.4858 33.3711 38.183 34.1753 36.5795 34.8789C36.4793 34.8789 37.1808 35.0799 37.6819 35.0799C37.281 35.2809 36.0784 35.0799 35.9782 35.0799C35.0763 35.482 34.0741 35.9845 33.1721 36.6881C37.5817 36.9897 40.2876 34.5773 41.2898 29.9536Z" fill="#A3A3A3"/>
</svg>
