<svg width="15" height="15" viewBox="0 0 15 15" fill="none" xmlns="http://www.w3.org/2000/svg">
<path d="M14.3755 10.0831C14.0296 10.0831 13.751 10.3635 13.751 10.7116V13.743H1.24898V10.7116C1.24898 10.3635 0.970408 10.0831 0.62449 10.0831C0.278571 10.0831 0 10.3635 0 10.7116V14.3715C0 14.7196 0.278571 15 0.62449 15H14.3755C14.7214 15 15 14.7196 15 14.3715V10.7116C15 10.3635 14.7214 10.0831 14.3755 10.0831Z" fill="#F1C893"/>
<path d="M7.04082 10.8287C7.39286 11.1861 7.82449 10.9889 7.95612 10.8287L11.5469 6.94085C11.7827 6.68515 11.7673 6.28774 11.5133 6.05052C11.2592 5.81331 10.8643 5.82871 10.6316 6.08441L8.12449 8.79852V0.628466C8.12449 0.280345 7.84592 0 7.5 0C7.15408 0 6.87551 0.280345 6.87551 0.628466V8.8016L4.36837 6.08749C4.13265 5.83179 3.73776 5.81947 3.48367 6.05361C3.22959 6.29082 3.21735 6.68823 3.45 6.94393L7.04082 10.8287Z" fill="#F1C893"/>
</svg>
