<svg width="107" height="91" viewBox="0 0 107 91" fill="none" xmlns="http://www.w3.org/2000/svg">
<path fill-rule="evenodd" clip-rule="evenodd" d="M56.8802 35.4149C56.1809 32.3659 55.4815 31.4278 55.0153 29.317V26.268C57.1133 24.6262 55.7147 21.1082 60.6101 19.4664C64.8062 18.0592 69.4685 20.8737 73.8977 21.1082C75.2964 21.1082 76.695 21.1082 77.8606 20.8737V22.2809H77.1613C76.695 22.2809 76.695 22.2809 76.695 22.75V25.5644C76.695 26.268 76.6951 27.2061 76.2288 27.9098C75.2964 28.3788 75.2964 27.2061 74.8301 27.6752C74.3639 27.9098 74.8301 28.6134 75.0632 28.8479L68.536 42.2164C68.3029 42.2164 68.0698 42.451 68.0698 42.6855C68.0698 42.9201 68.3029 43.1546 68.536 43.1546H69.0022C69.2353 44.0927 70.1678 45.0309 71.1003 45.0309H85.3203C86.2528 45.0309 87.1852 44.3273 87.4184 43.1546H87.8846C88.1177 43.1546 88.3508 42.9201 88.3508 42.6855C88.3508 42.451 88.1177 42.2164 87.8846 42.2164H87.6515L81.1242 28.6133C81.5905 28.3788 82.0567 27.4407 81.1242 27.4407C80.4249 27.2061 80.4249 28.3788 79.7256 27.9098C79.2593 27.2061 79.2593 26.268 79.2593 25.5644V22.75C79.2593 22.2809 79.2593 22.2809 78.7931 22.2809H78.3269V20.6391C79.2593 20.1701 80.1918 19.4664 80.658 18.2938C73.8977 22.2809 67.1373 13.8376 60.6101 15.0103C58.512 15.4793 56.6471 16.4175 54.5491 18.2938V15.7139C55.4815 15.4793 56.1809 14.0721 55.9478 12.4304C55.4815 10.3195 53.6166 9.3814 53.1504 5.39429C52.6842 9.3814 50.8192 10.5541 50.353 12.4304C49.8868 14.0721 50.8192 15.4793 51.7517 15.7139V18.2938C49.6537 16.4175 47.7887 15.4793 45.6907 15.0103C38.9303 13.8376 32.4031 22.2809 25.6428 18.2938C26.3421 19.4664 27.0414 20.1701 28.207 20.6391V22.2809H27.5077C27.0415 22.2809 27.0414 22.2809 27.0414 22.75V25.5644C27.0414 26.268 27.0415 27.2061 26.5752 27.9098C25.6428 28.3788 25.6428 27.2061 25.1765 27.6752C24.7103 27.9098 25.1765 28.6134 25.4096 28.8479L19.3486 42.2164H19.1155C18.8824 42.2164 18.6493 42.451 18.6493 42.6855C18.6493 42.9201 18.8824 43.1546 19.1155 43.1546H19.5818C19.8149 44.0927 20.7473 45.0309 21.6798 45.0309H35.8998C36.8323 45.0309 37.7648 44.3273 37.9979 43.1546H38.4641C38.6972 43.1546 38.9303 42.9201 38.9303 42.6855C38.9303 42.451 38.6972 42.2164 38.4641 42.2164H38.231L31.7038 28.6133C32.17 28.3788 32.6362 27.4407 31.7038 27.4407C31.0044 27.2061 31.0044 28.3788 30.3051 27.9098C29.8388 27.2061 29.8388 26.268 29.8388 25.5644V22.75C29.8388 22.2809 29.8388 22.2809 29.3726 22.2809H28.9064V20.8737C30.072 21.1082 31.4706 21.1082 32.8693 21.1082C37.2985 20.8737 41.9608 18.0592 46.1569 19.4664C51.0523 21.1082 49.6537 24.6262 51.7517 26.268V29.5515C51.2855 31.6623 50.5861 32.6005 49.8868 35.4149C49.4205 37.2912 50.353 38.4639 51.5186 39.1675C51.0523 39.402 50.5861 39.402 50.5861 39.8711C50.5861 40.3402 51.0524 40.5747 51.9848 40.5747C51.0524 41.2783 50.5861 42.451 50.8192 44.3273C51.0524 45.2654 51.2855 46.4381 51.7517 47.3762V51.5979H51.5186C50.5861 51.5979 51.5186 61.2139 47.7887 61.2139C47.5556 61.2139 47.3225 61.4484 47.3225 61.6829H44.0589C43.3595 61.6829 42.8933 62.152 42.6602 62.8556H41.4946C40.329 62.8556 39.3966 63.5592 39.3966 64.2628H66.6711C66.6711 63.5592 65.7386 62.8556 64.5731 62.8556H63.8737C63.6406 62.152 63.1744 61.6829 62.475 61.6829H59.2114C59.2114 61.4484 58.9783 61.2139 58.7452 61.2139C55.0153 61.2139 55.9478 51.5979 55.0153 51.5979H54.7822V47.3762C55.2484 46.2036 55.4815 45.2654 55.7147 44.3273C55.9478 42.451 55.4815 41.2783 54.5491 40.5747C55.4815 40.3402 55.9478 40.1056 55.9478 39.8711C55.9478 39.6366 55.7146 39.402 55.0153 39.1675C56.414 38.6984 57.3465 37.2912 56.8802 35.4149ZM53.3835 20.4046V23.219V20.4046ZM77.8606 42.2164V28.8479C77.8606 28.8479 77.6275 28.8479 77.6275 28.6133V26.7371H77.8606V25.5644C77.3944 25.7989 77.6275 27.6752 77.1613 28.3788C76.9282 28.8479 76.4619 29.0824 75.7626 29.0824L69.4685 42.2164H77.8606ZM78.3269 42.2164H86.9521L80.658 29.0824C80.4249 29.0824 80.1918 29.0824 79.9587 29.0824C79.2593 28.8479 79.0262 28.3788 79.0262 27.4407C79.0262 27.2061 79.0262 25.7989 78.56 25.7989V26.9716H78.7931V28.8479C78.7931 28.8479 78.7931 29.0824 78.56 29.0824L78.3269 42.2164ZM78.56 24.1572C78.56 24.1572 78.56 23.9226 78.56 24.1572V23.219H77.8606V23.9226H78.56V24.1572ZM28.4402 42.2164V28.8479C28.4402 28.8479 28.207 28.8479 28.207 28.6133V26.7371H28.4402V25.5644C27.9739 25.7989 28.207 27.6752 27.7408 28.3788C27.5077 28.8479 27.0415 29.0824 26.3421 29.0824L20.048 42.2164H28.4402ZM29.1395 42.2164H37.7648L31.2375 29.0824C31.0044 29.0824 30.7713 29.0824 30.5382 29.0824C29.8388 28.8479 29.6057 28.3788 29.6057 27.4407C29.6057 27.2061 29.6057 25.7989 29.1395 25.7989V26.9716H29.3726V28.8479C29.3726 28.8479 29.3726 29.0824 29.1395 29.0824V42.2164ZM29.1395 24.1572C29.3726 24.1572 29.3726 23.9226 29.1395 24.1572V23.219H28.4402V23.9226H29.1395V24.1572Z" fill="#EECB9E"/>
<path fill-rule="evenodd" clip-rule="evenodd" d="M10.9564 69.8918C12.122 71.0644 16.7843 76.9278 22.146 79.0387C26.8083 80.6804 29.6057 84.6675 30.7713 85.1366C30.0719 84.9021 27.0414 83.0258 24.4771 81.6186C20.281 79.5077 16.7843 78.8041 13.7538 73.8789C15.1525 77.866 18.183 79.7423 21.9129 81.384C22.146 81.384 20.5142 81.8531 19.3486 81.8531C20.2811 82.3222 23.0784 81.8531 23.3115 81.8531C25.4096 82.7912 27.7407 83.9639 29.8388 85.6057C19.5817 86.3093 13.2876 80.6804 10.9564 69.8918ZM19.1155 60.5103C20.9804 66.6083 20.7473 73.1753 24.4771 77.6314C27.0414 80.6804 30.5381 82.7912 35.6667 83.4948C32.8693 87.0129 28.9063 87.482 22.6122 86.3093C26.8083 88.1856 29.3726 89.8273 32.1699 88.8892C34.7342 87.951 37.2985 86.0747 38.2309 82.0876C37.7647 81.8531 37.0654 81.8531 36.8322 81.6186C36.5991 81.6186 36.366 81.384 36.1329 81.384V82.0876C32.403 79.9768 29.8388 76.9278 27.5076 73.8789C24.0109 68.7191 22.3791 63.3247 19.1155 60.5103ZM60.61 83.9639C61.3094 86.5438 62.2418 89.1237 63.8736 91C61.5425 90.7655 59.2113 90.0619 57.1133 89.1237C54.0828 87.7165 53.1503 87.7165 49.8867 89.1237C47.7887 90.0619 45.4575 90.7655 43.1264 91C44.7582 89.3583 45.6906 86.5438 46.39 83.9639C49.1874 84.1985 51.9847 84.433 53.6166 84.6675C55.0152 84.433 57.5795 84.1985 60.61 83.9639ZM61.7756 83.7294C62.2418 85.8402 64.1068 91.4691 67.3704 90.7655C65.0392 88.6546 64.3399 85.8402 64.1068 83.2603C63.4074 83.4948 62.7081 83.4948 61.7756 83.7294ZM44.7582 83.7294C44.2919 85.8402 42.427 91.4691 39.1634 90.7655C41.4946 88.6546 42.1939 85.8402 42.427 83.2603C43.3595 83.4948 44.0588 83.4948 44.7582 83.7294ZM65.5054 83.0258C65.7386 85.8402 67.6035 89.1237 70.4009 90.5309C70.8671 90.7655 72.2658 90.5309 72.732 90.2964C69.7015 88.1856 68.3028 85.6057 67.3704 82.5567C66.671 82.7912 66.2048 83.0258 65.5054 83.0258ZM41.2614 83.0258C41.0283 85.8402 39.1634 89.1237 36.366 90.5309C35.8998 90.7655 34.5011 90.5309 34.0349 90.2964C37.0654 88.1856 38.4641 85.6057 39.3965 82.5567C39.8627 82.7912 40.5621 83.0258 41.2614 83.0258ZM87.6514 60.5103C85.7865 66.6083 86.0196 73.1753 82.2898 77.6314C79.7255 80.6804 76.2288 82.7912 71.1002 83.4948C73.8976 87.0129 77.8606 87.482 84.1547 86.3093C79.9586 88.1856 77.3943 89.8273 74.5969 88.8892C72.0327 87.951 69.4684 86.0747 68.5359 82.0876C69.0022 81.8531 69.7015 81.8531 69.9346 81.6186C70.1678 81.6186 70.4009 81.384 70.634 81.384V82.0876C74.3638 79.9768 76.9281 76.9278 79.2593 73.8789C82.756 68.7191 84.3878 63.3247 87.6514 60.5103ZM84.1547 69.6572C83.6884 73.6443 82.2898 76.6933 79.9586 78.8041C77.6275 80.9149 74.5969 82.3222 70.8671 82.7912C74.1307 81.8531 76.9281 79.9768 79.2593 75.9897C79.2593 76.9278 78.793 77.6314 78.5599 78.5696C80.658 75.9897 82.5229 73.4098 84.1547 69.6572ZM22.6122 69.6572C23.0784 73.6443 24.4771 76.6933 26.8083 78.8041C29.1394 80.9149 32.1699 82.3222 35.8998 82.7912C32.6362 81.8531 29.8388 79.9768 27.5076 75.9897C27.5076 76.9278 27.9739 77.6314 28.207 78.5696C26.1089 75.9897 24.244 73.4098 22.6122 69.6572ZM96.2767 50.4253C92.0806 59.8067 89.5163 55.3505 88.817 65.6701C88.817 65.6701 89.7495 63.0902 91.6144 60.2758C93.2462 57.2268 95.3442 56.2887 96.0436 51.8325C95.5773 56.5232 93.2462 58.165 91.8475 60.7448C90.2157 64.0284 89.0501 66.1392 89.0501 66.1392C93.7124 63.3247 97.6754 58.3995 96.2767 50.4253ZM10.7233 50.4253C14.9194 59.8067 17.4837 55.3505 18.183 65.6701C18.183 65.6701 17.2505 63.0902 15.3856 60.2758C13.7538 57.2268 11.6558 56.2887 10.9564 51.8325C11.4227 56.5232 13.7538 58.165 15.1525 60.7448C16.7843 64.0284 17.9499 66.1392 17.9499 66.1392C13.2876 63.3247 9.32461 58.3995 10.7233 50.4253ZM107 44.5619C101.405 52.5361 98.841 48.3144 97.9085 57.9304C97.9085 57.9304 98.841 55.8196 101.172 52.7706C103.037 50.4253 105.601 49.018 106.534 45.7345C106.068 49.018 103.503 50.6598 101.405 53.2397C99.3072 55.8196 98.1416 58.3995 98.1416 58.3995C102.804 56.2887 107 52.3015 107 44.5619ZM0 44.5619C5.59477 52.5361 8.15904 48.3144 9.09151 57.9304C9.09151 57.9304 8.15904 55.8196 5.82789 52.7706C3.96296 50.4253 1.3987 49.018 0.466242 45.7345C0.932473 49.018 3.49674 50.6598 5.59477 53.2397C7.69281 55.8196 8.85839 58.3995 8.85839 58.3995C4.19609 56.2887 0 52.3015 0 44.5619ZM81.8235 0C88.817 6.56701 91.6144 13.134 95.5773 15.7139C95.5773 15.7139 93.0131 11.9613 90.6819 8.91237C88.817 6.33247 86.4858 3.75258 84.854 2.34536C85.7865 3.04897 88.817 5.8634 91.1481 8.67784C93.4793 11.4923 96.0436 15.4794 96.0436 15.4794C95.5773 10.7887 87.6514 2.81443 81.8235 0ZM25.1765 0C18.183 6.56701 15.3856 13.134 11.4227 15.7139C11.4227 15.7139 13.9869 11.9613 16.3181 8.91237C18.183 6.33247 20.5142 3.75258 22.146 2.34536C21.2135 3.04897 18.183 5.8634 15.8519 8.67784C13.5207 11.4923 10.9564 15.4794 10.9564 15.4794C11.4227 10.7887 19.3486 2.81443 25.1765 0ZM92.5468 5.39433C97.2092 13.8376 96.976 19.232 100.473 23.2191C100.473 23.2191 99.5403 20.1701 98.1416 16.6521C96.976 13.6031 95.8104 10.3196 94.6449 8.67784C95.3442 9.61598 97.2092 13.3686 98.6078 16.6521C100.007 20.1701 100.939 23.2191 100.939 23.2191C102.338 18.7629 97.2092 10.085 92.5468 5.39433ZM14.4532 5.39433C9.79086 13.8376 10.024 19.232 6.52724 23.2191C6.52724 23.2191 7.4597 20.1701 8.85839 16.6521C10.024 13.6031 11.1895 10.3196 12.3551 8.67784C11.6558 9.61598 9.79085 13.3686 8.39215 16.6521C6.99346 20.1701 6.061 23.2191 6.061 23.2191C4.66231 18.7629 9.79086 10.085 14.4532 5.39433ZM89.5163 11.0232C95.3442 18.7629 94.1786 23.4536 100.007 27.4407C100.007 27.4407 98.841 25.799 97.6754 23.4536C96.976 21.8119 93.7124 15.4794 92.0806 13.6031C94.1786 15.4794 97.4423 22.0464 98.1416 23.2191C99.3072 25.3299 100.473 27.2062 100.473 27.2062C100.473 23.4536 94.6449 14.7758 89.5163 11.0232ZM17.4837 11.0232C11.6558 18.7629 12.8214 23.4536 6.99346 27.4407C6.99346 27.4407 8.15904 25.799 9.32462 23.4536C10.024 21.8119 13.2876 15.4794 14.9194 13.6031C12.8214 15.4794 9.55774 22.0464 8.85839 23.2191C7.69282 25.3299 6.52724 27.2062 6.52724 27.2062C6.52724 23.4536 12.3551 14.7758 17.4837 11.0232ZM102.105 19.701C102.105 26.9717 99.0741 26.268 102.571 32.6005C102.571 32.6005 102.105 30.4897 102.105 28.1443C102.105 26.268 103.27 23.9227 102.571 21.5773C103.503 24.1572 102.571 26.9716 102.571 28.1443C102.571 30.4897 102.804 32.8351 102.804 32.6005C104.669 29.0825 105.368 24.3918 102.105 19.701ZM5.12855 19.701C5.12855 26.9717 8.15904 26.268 4.66231 32.6005C4.66231 32.6005 5.12855 30.4897 5.12855 28.1443C5.12855 26.268 3.96296 23.9227 4.66231 21.5773C3.72985 24.1572 4.66231 26.9716 4.66231 28.1443C4.66231 30.4897 4.4292 32.8351 4.4292 32.6005C2.33116 29.0825 1.63182 24.3918 5.12855 19.701ZM93.2462 24.3918C97.6754 30.2552 94.6449 31.4278 101.172 34.4768C101.172 34.4768 99.7734 33.0696 98.1416 30.9588C96.976 29.5515 96.5098 26.9716 94.4118 25.3299C96.7429 26.9716 97.6754 29.5515 98.3747 30.7242C99.7734 32.6005 101.405 34.2423 101.405 34.2423C100.939 30.4897 98.841 26.268 93.2462 24.3918ZM13.7538 24.3918C9.32462 30.2552 12.3551 31.4278 5.82789 34.4768C5.82789 34.4768 7.22659 33.0696 8.85839 30.9588C10.024 29.5515 10.4902 26.9716 12.5882 25.3299C10.2571 26.9716 9.32463 29.5515 8.62528 30.7242C6.99347 32.835 5.59477 34.4768 5.59477 34.2423C6.06101 30.4897 8.15904 26.268 13.7538 24.3918ZM104.902 28.8479C103.27 35.884 100.24 34.4768 102.338 41.5129C102.338 41.5129 102.571 39.4021 103.037 37.0567C103.503 35.415 105.135 33.0696 104.902 30.7242C105.368 33.5387 103.736 35.884 103.27 37.2912C102.804 39.6366 102.571 41.7474 102.571 41.7474C105.135 38.4639 107 34.2423 104.902 28.8479ZM2.09804 28.8479C3.72985 35.884 6.76035 34.4768 4.66231 41.5129C4.66231 41.5129 4.4292 39.4021 3.96297 37.0567C3.49674 35.415 1.86493 33.0696 2.09804 30.7242C1.63181 33.5387 3.26361 35.884 3.72984 37.2912C4.19607 39.6366 4.4292 41.7474 4.4292 41.7474C1.86493 38.4639 3.61264e-06 34.2423 2.09804 28.8479ZM95.5773 31.6624C98.3747 38.4639 95.1111 38.933 100.706 43.3892C100.706 43.3892 99.5403 41.5129 98.6078 39.4021C97.9085 37.7603 98.1416 34.9459 96.5098 33.0696C98.3747 35.1804 98.6078 37.9948 99.0741 39.1675C100.007 41.2783 101.172 43.3892 101.172 43.3892C101.405 39.4021 100.473 34.9459 95.5773 31.6624ZM11.4227 31.6624C8.62528 38.4639 11.8889 38.933 6.29413 43.3892C6.29413 43.3892 7.45969 41.5129 8.39215 39.4021C9.0915 37.7603 8.85839 34.9459 10.4902 33.0696C8.62527 35.1804 8.39216 37.9948 7.92593 39.1675C6.99347 41.2783 5.82789 43.3892 5.82789 43.3892C5.59477 39.4021 6.52724 34.9459 11.4227 31.6624ZM106.534 37.5258C103.037 43.8582 100.706 41.7474 100.706 49.018C100.706 49.018 101.405 47.1417 102.571 44.7964C103.503 43.1546 105.601 41.5129 106.068 39.1675C105.601 41.9819 103.503 43.8582 102.804 45.0309C101.638 47.1417 100.706 49.2526 100.939 49.2526C104.436 47.1418 107.233 43.3892 106.534 37.5258ZM0.466242 37.5258C3.96297 43.8582 6.29413 41.7474 6.29413 49.018C6.29413 49.018 5.59477 47.1417 4.4292 44.7964C3.49674 43.1546 1.3987 41.5129 0.932465 39.1675C1.3987 41.9819 3.49674 43.8582 4.19609 45.0309C5.36166 47.1417 6.29411 49.2526 6.061 49.2526C2.56427 47.1418 -0.233105 43.3892 0.466242 37.5258ZM96.0436 39.1675C97.2092 46.4381 93.9455 46.2036 98.6078 51.8325C98.6078 51.8325 97.9085 49.9562 97.4423 47.3763C97.2092 45.5 97.9085 42.9201 96.7429 40.8093C98.1416 43.3892 97.6754 45.9691 97.9085 47.3763C98.3747 49.7216 98.841 51.8325 99.0741 51.8325C100.24 48.0799 100.24 43.3892 96.0436 39.1675ZM10.9564 39.1675C9.79086 46.4381 13.0545 46.2036 8.39215 51.8325C8.39215 51.8325 9.0915 49.9562 9.55773 47.3763C9.79085 45.5 9.09151 42.9201 10.2571 40.8093C8.85839 43.3892 9.32462 45.9691 9.09151 47.3763C8.62528 49.7216 8.15904 51.8325 7.92593 51.8325C6.76035 48.0799 6.76036 43.3892 10.9564 39.1675ZM101.638 56.9923C100.706 59.1031 99.0741 61.2139 96.5098 63.0902C93.0131 65.6701 92.78 65.4356 89.5163 68.7191C88.5839 69.6572 87.1852 70.5954 86.0196 71.5335C86.0196 71.5335 90.4488 69.8918 94.878 66.8428C97.6754 64.9665 100.939 63.0902 101.638 58.8686C101.638 62.6211 98.841 64.9665 95.3442 67.3118C92.78 69.1881 88.1177 71.5335 85.7865 72.0026C90.6819 71.5335 105.135 69.4227 101.638 56.9923ZM5.36166 56.9923C6.29412 59.1031 7.92593 61.2139 10.4902 63.0902C13.9869 65.6701 14.22 65.4356 17.4837 68.7191C18.4161 69.6572 19.8148 70.5954 20.9804 71.5335C20.9804 71.5335 16.5512 69.8918 12.122 66.8428C9.32463 64.9665 6.06101 63.0902 5.36166 58.8686C5.36166 62.6211 8.15904 64.9665 11.6558 67.3118C14.22 69.1881 18.8823 71.5335 21.2135 72.0026C16.3181 71.5335 1.86493 69.4227 5.36166 56.9923ZM96.0436 69.8918C94.878 71.0644 90.2157 76.9278 84.854 79.0387C80.1917 80.6804 77.3943 84.6675 76.2288 85.1366C76.9281 84.9021 79.9586 83.0258 82.5229 81.6186C86.719 79.5077 90.2157 78.8041 93.2462 73.8789C91.8475 77.866 88.817 79.7423 85.0871 81.384C84.854 81.384 86.4858 81.8531 87.6514 81.8531C86.7189 82.3222 83.9216 81.8531 83.6885 81.8531C81.5904 82.7912 79.2593 83.9639 77.1612 85.6057C87.4183 86.3093 93.7124 80.6804 96.0436 69.8918Z" fill="#EECB9E"/>
</svg>
